<mxfile host="app.diagrams.net" agent="Mozilla/5.0 (X11; Linux x86_64) AppleWebKit/537.36 (KHTML, like Gecko) Chrome/128.0.0.0 Safari/537.36" version="24.8.3">
  <diagram name="Страница — 1" id="uPT3UJ9-F7xit6qx0-dd">
    <mxGraphModel dx="2552" dy="104" grid="1" gridSize="10" guides="1" tooltips="1" connect="1" arrows="1" fold="1" page="1" pageScale="1" pageWidth="827" pageHeight="1169" math="0" shadow="0">
      <root>
        <mxCell id="0" />
        <mxCell id="1" parent="0" />
        <mxCell id="o8FTrNFCNX72LYN5SZ1k-58" value="" style="rounded=0;whiteSpace=wrap;html=1;" parent="1" vertex="1">
          <mxGeometry x="170" y="1320" width="560" height="590" as="geometry" />
        </mxCell>
        <mxCell id="o8FTrNFCNX72LYN5SZ1k-1" value="&lt;div&gt;П&lt;span style=&quot;background-color: initial;&quot;&gt;ользователь&lt;/span&gt;&lt;/div&gt;" style="shape=umlActor;verticalLabelPosition=bottom;verticalAlign=top;html=1;outlineConnect=0;" parent="1" vertex="1">
          <mxGeometry x="30" y="1477" width="30" height="60" as="geometry" />
        </mxCell>
        <mxCell id="o8FTrNFCNX72LYN5SZ1k-2" value="Изменять список исходных статей" style="ellipse;whiteSpace=wrap;html=1;" parent="1" vertex="1">
          <mxGeometry x="180" y="1327" width="120" height="70" as="geometry" />
        </mxCell>
        <mxCell id="o8FTrNFCNX72LYN5SZ1k-6" value="Изменять список переведённых&lt;div&gt;&amp;nbsp;статей&lt;/div&gt;" style="ellipse;whiteSpace=wrap;html=1;" parent="1" vertex="1">
          <mxGeometry x="180" y="1417" width="120" height="70" as="geometry" />
        </mxCell>
        <mxCell id="o8FTrNFCNX72LYN5SZ1k-7" value="Изменять список жалоб на переводы&lt;div&gt;своих статей&lt;/div&gt;" style="ellipse;whiteSpace=wrap;html=1;" parent="1" vertex="1">
          <mxGeometry x="180" y="1497" width="120" height="70" as="geometry" />
        </mxCell>
        <mxCell id="o8FTrNFCNX72LYN5SZ1k-8" value="Просматривать&lt;div&gt;свои уведомления&lt;/div&gt;" style="ellipse;whiteSpace=wrap;html=1;" parent="1" vertex="1">
          <mxGeometry x="180" y="1577" width="120" height="70" as="geometry" />
        </mxCell>
        <mxCell id="o8FTrNFCNX72LYN5SZ1k-9" value="Изменять список комментариев к жалобам на переводы своих статей" style="ellipse;whiteSpace=wrap;html=1;" parent="1" vertex="1">
          <mxGeometry x="180" y="1652" width="140" height="80" as="geometry" />
        </mxCell>
        <mxCell id="o8FTrNFCNX72LYN5SZ1k-10" value="Получить список комментариев к жалобе" style="ellipse;whiteSpace=wrap;html=1;" parent="1" vertex="1">
          <mxGeometry x="300" y="1447" width="120" height="70" as="geometry" />
        </mxCell>
        <mxCell id="o8FTrNFCNX72LYN5SZ1k-11" value="Создать комментарий" style="ellipse;whiteSpace=wrap;html=1;" parent="1" vertex="1">
          <mxGeometry x="354" y="1667" width="120" height="70" as="geometry" />
        </mxCell>
        <mxCell id="o8FTrNFCNX72LYN5SZ1k-13" value="Изменять список настроек переводчика" style="ellipse;whiteSpace=wrap;html=1;" parent="1" vertex="1">
          <mxGeometry x="180" y="1757" width="120" height="70" as="geometry" />
        </mxCell>
        <mxCell id="o8FTrNFCNX72LYN5SZ1k-14" value="Администратор" style="shape=umlActor;verticalLabelPosition=bottom;verticalAlign=top;html=1;outlineConnect=0;" parent="1" vertex="1">
          <mxGeometry x="810" y="1437" width="30" height="60" as="geometry" />
        </mxCell>
        <mxCell id="o8FTrNFCNX72LYN5SZ1k-15" value="Изменять список стилей перевода" style="ellipse;whiteSpace=wrap;html=1;" parent="1" vertex="1">
          <mxGeometry x="425" y="1447" width="120" height="70" as="geometry" />
        </mxCell>
        <mxCell id="o8FTrNFCNX72LYN5SZ1k-16" value="Изменять список моделей перевода" style="ellipse;whiteSpace=wrap;html=1;" parent="1" vertex="1">
          <mxGeometry x="370" y="1517" width="120" height="70" as="geometry" />
        </mxCell>
        <mxCell id="o8FTrNFCNX72LYN5SZ1k-17" value="Изменять список пользователей" style="ellipse;whiteSpace=wrap;html=1;" parent="1" vertex="1">
          <mxGeometry x="600" y="1497" width="120" height="70" as="geometry" />
        </mxCell>
        <mxCell id="o8FTrNFCNX72LYN5SZ1k-18" value="Просматривать статистику жалоб" style="ellipse;whiteSpace=wrap;html=1;" parent="1" vertex="1">
          <mxGeometry x="520" y="1387" width="120" height="70" as="geometry" />
        </mxCell>
        <mxCell id="o8FTrNFCNX72LYN5SZ1k-19" value="Создавать пользоватей" style="ellipse;whiteSpace=wrap;html=1;" parent="1" vertex="1">
          <mxGeometry x="430" y="1587" width="120" height="70" as="geometry" />
        </mxCell>
        <mxCell id="o8FTrNFCNX72LYN5SZ1k-20" value="Создавать модераторов" style="ellipse;whiteSpace=wrap;html=1;" parent="1" vertex="1">
          <mxGeometry x="490" y="1657" width="120" height="70" as="geometry" />
        </mxCell>
        <mxCell id="o8FTrNFCNX72LYN5SZ1k-21" value="Создавать администраторов" style="ellipse;whiteSpace=wrap;html=1;" parent="1" vertex="1">
          <mxGeometry x="600" y="1617" width="120" height="70" as="geometry" />
        </mxCell>
        <mxCell id="o8FTrNFCNX72LYN5SZ1k-22" value="Модератор" style="shape=umlActor;verticalLabelPosition=bottom;verticalAlign=top;html=1;outlineConnect=0;" parent="1" vertex="1">
          <mxGeometry x="780" y="1327" width="30" height="60" as="geometry" />
        </mxCell>
        <mxCell id="o8FTrNFCNX72LYN5SZ1k-23" value="Изменять список открытых жалоб" style="ellipse;whiteSpace=wrap;html=1;" parent="1" vertex="1">
          <mxGeometry x="600" y="1327" width="120" height="70" as="geometry" />
        </mxCell>
        <mxCell id="o8FTrNFCNX72LYN5SZ1k-25" value="Создавать комментарии для далоб" style="ellipse;whiteSpace=wrap;html=1;" parent="1" vertex="1">
          <mxGeometry x="425" y="1327" width="120" height="70" as="geometry" />
        </mxCell>
        <mxCell id="o8FTrNFCNX72LYN5SZ1k-26" value="Все аутентифицированные&amp;nbsp;&lt;div&gt;пользователи&lt;/div&gt;" style="shape=umlActor;verticalLabelPosition=bottom;verticalAlign=top;html=1;outlineConnect=0;" parent="1" vertex="1">
          <mxGeometry x="405" y="1920" width="30" height="60" as="geometry" />
        </mxCell>
        <mxCell id="o8FTrNFCNX72LYN5SZ1k-27" value="Изменять учётную запись" style="ellipse;whiteSpace=wrap;html=1;" parent="1" vertex="1">
          <mxGeometry x="390" y="1750" width="120" height="70" as="geometry" />
        </mxCell>
        <mxCell id="o8FTrNFCNX72LYN5SZ1k-28" value="Завершать&amp;nbsp;&lt;div&gt;открытые сессии&lt;/div&gt;" style="ellipse;whiteSpace=wrap;html=1;" parent="1" vertex="1">
          <mxGeometry x="294" y="1800" width="120" height="70" as="geometry" />
        </mxCell>
        <mxCell id="o8FTrNFCNX72LYN5SZ1k-29" value="Просматривать&lt;div&gt;список открытых&lt;/div&gt;&lt;div&gt;сессий&lt;/div&gt;" style="ellipse;whiteSpace=wrap;html=1;" parent="1" vertex="1">
          <mxGeometry x="470" y="1827" width="120" height="70" as="geometry" />
        </mxCell>
        <mxCell id="o8FTrNFCNX72LYN5SZ1k-30" value="Гость" style="shape=umlActor;verticalLabelPosition=bottom;verticalAlign=top;html=1;outlineConnect=0;" parent="1" vertex="1">
          <mxGeometry x="810" y="1712" width="30" height="60" as="geometry" />
        </mxCell>
        <mxCell id="o8FTrNFCNX72LYN5SZ1k-31" value="Регистрироваться" style="ellipse;whiteSpace=wrap;html=1;" parent="1" vertex="1">
          <mxGeometry x="600" y="1712" width="120" height="70" as="geometry" />
        </mxCell>
        <mxCell id="o8FTrNFCNX72LYN5SZ1k-32" style="rounded=0;orthogonalLoop=1;jettySize=auto;html=1;exitX=0;exitY=0.5;exitDx=0;exitDy=0;entryX=1;entryY=0.5;entryDx=0;entryDy=0;dashed=1;" parent="1" source="o8FTrNFCNX72LYN5SZ1k-23" target="o8FTrNFCNX72LYN5SZ1k-25" edge="1">
          <mxGeometry relative="1" as="geometry">
            <mxPoint x="550" y="1087" as="sourcePoint" />
            <mxPoint x="430" y="1047" as="targetPoint" />
          </mxGeometry>
        </mxCell>
        <mxCell id="o8FTrNFCNX72LYN5SZ1k-33" value="&amp;lt;&amp;lt;include&amp;gt;&amp;gt;" style="edgeLabel;html=1;align=center;verticalAlign=middle;resizable=0;points=[];" parent="o8FTrNFCNX72LYN5SZ1k-32" vertex="1" connectable="0">
          <mxGeometry x="-0.1619" y="1" relative="1" as="geometry">
            <mxPoint x="-3" y="-24" as="offset" />
          </mxGeometry>
        </mxCell>
        <mxCell id="o8FTrNFCNX72LYN5SZ1k-34" style="rounded=0;orthogonalLoop=1;jettySize=auto;html=1;exitX=0;exitY=0.5;exitDx=0;exitDy=0;entryX=0.5;entryY=0;entryDx=0;entryDy=0;dashed=1;" parent="1" source="o8FTrNFCNX72LYN5SZ1k-17" target="o8FTrNFCNX72LYN5SZ1k-19" edge="1">
          <mxGeometry relative="1" as="geometry">
            <mxPoint x="610" y="1372" as="sourcePoint" />
            <mxPoint x="555" y="1372" as="targetPoint" />
          </mxGeometry>
        </mxCell>
        <mxCell id="o8FTrNFCNX72LYN5SZ1k-35" value="&amp;lt;&amp;lt;include&amp;gt;&amp;gt;" style="edgeLabel;html=1;align=center;verticalAlign=middle;resizable=0;points=[];" parent="o8FTrNFCNX72LYN5SZ1k-34" vertex="1" connectable="0">
          <mxGeometry x="-0.1619" y="1" relative="1" as="geometry">
            <mxPoint x="-4" y="-4" as="offset" />
          </mxGeometry>
        </mxCell>
        <mxCell id="o8FTrNFCNX72LYN5SZ1k-36" style="rounded=0;orthogonalLoop=1;jettySize=auto;html=1;exitX=0;exitY=1;exitDx=0;exitDy=0;entryX=0.5;entryY=0;entryDx=0;entryDy=0;dashed=1;" parent="1" source="o8FTrNFCNX72LYN5SZ1k-17" target="o8FTrNFCNX72LYN5SZ1k-20" edge="1">
          <mxGeometry relative="1" as="geometry">
            <mxPoint x="610" y="1662" as="sourcePoint" />
            <mxPoint x="560" y="1662" as="targetPoint" />
          </mxGeometry>
        </mxCell>
        <mxCell id="o8FTrNFCNX72LYN5SZ1k-37" value="&amp;lt;&amp;lt;include&amp;gt;&amp;gt;" style="edgeLabel;html=1;align=center;verticalAlign=middle;resizable=0;points=[];" parent="o8FTrNFCNX72LYN5SZ1k-36" vertex="1" connectable="0">
          <mxGeometry x="-0.1619" y="1" relative="1" as="geometry">
            <mxPoint x="14" y="-2" as="offset" />
          </mxGeometry>
        </mxCell>
        <mxCell id="o8FTrNFCNX72LYN5SZ1k-38" style="rounded=0;orthogonalLoop=1;jettySize=auto;html=1;exitX=0.5;exitY=1;exitDx=0;exitDy=0;entryX=0.5;entryY=0;entryDx=0;entryDy=0;dashed=1;" parent="1" source="o8FTrNFCNX72LYN5SZ1k-17" target="o8FTrNFCNX72LYN5SZ1k-21" edge="1">
          <mxGeometry relative="1" as="geometry">
            <mxPoint x="628" y="1687" as="sourcePoint" />
            <mxPoint x="562" y="1727" as="targetPoint" />
          </mxGeometry>
        </mxCell>
        <mxCell id="o8FTrNFCNX72LYN5SZ1k-39" value="&amp;lt;&amp;lt;include&amp;gt;&amp;gt;" style="edgeLabel;html=1;align=center;verticalAlign=middle;resizable=0;points=[];" parent="o8FTrNFCNX72LYN5SZ1k-38" vertex="1" connectable="0">
          <mxGeometry x="-0.1619" y="1" relative="1" as="geometry">
            <mxPoint x="3" y="-1" as="offset" />
          </mxGeometry>
        </mxCell>
        <mxCell id="o8FTrNFCNX72LYN5SZ1k-40" style="rounded=0;orthogonalLoop=1;jettySize=auto;html=1;exitX=0;exitY=0.3333333333333333;exitDx=0;exitDy=0;exitPerimeter=0;entryX=1;entryY=0.5;entryDx=0;entryDy=0;startArrow=none;startFill=0;endArrow=none;endFill=0;" parent="1" source="o8FTrNFCNX72LYN5SZ1k-14" target="o8FTrNFCNX72LYN5SZ1k-18" edge="1">
          <mxGeometry relative="1" as="geometry">
            <mxPoint x="190" y="1187" as="sourcePoint" />
            <mxPoint x="200" y="1087" as="targetPoint" />
          </mxGeometry>
        </mxCell>
        <mxCell id="o8FTrNFCNX72LYN5SZ1k-41" style="rounded=0;orthogonalLoop=1;jettySize=auto;html=1;exitX=0;exitY=0.3333333333333333;exitDx=0;exitDy=0;exitPerimeter=0;entryX=1;entryY=0.5;entryDx=0;entryDy=0;startArrow=none;startFill=0;endArrow=none;endFill=0;" parent="1" source="o8FTrNFCNX72LYN5SZ1k-14" target="o8FTrNFCNX72LYN5SZ1k-15" edge="1">
          <mxGeometry relative="1" as="geometry">
            <mxPoint x="820" y="1467" as="sourcePoint" />
            <mxPoint x="650" y="1432" as="targetPoint" />
          </mxGeometry>
        </mxCell>
        <mxCell id="o8FTrNFCNX72LYN5SZ1k-42" style="rounded=0;orthogonalLoop=1;jettySize=auto;html=1;exitX=0;exitY=0.3333333333333333;exitDx=0;exitDy=0;exitPerimeter=0;entryX=1;entryY=0;entryDx=0;entryDy=0;startArrow=none;startFill=0;endArrow=none;endFill=0;" parent="1" source="o8FTrNFCNX72LYN5SZ1k-14" target="o8FTrNFCNX72LYN5SZ1k-16" edge="1">
          <mxGeometry relative="1" as="geometry">
            <mxPoint x="820" y="1467" as="sourcePoint" />
            <mxPoint x="555" y="1492" as="targetPoint" />
          </mxGeometry>
        </mxCell>
        <mxCell id="o8FTrNFCNX72LYN5SZ1k-43" style="rounded=0;orthogonalLoop=1;jettySize=auto;html=1;exitX=0;exitY=0.5;exitDx=0;exitDy=0;entryX=1;entryY=0.3333333333333333;entryDx=0;entryDy=0;startArrow=none;startFill=0;endArrow=none;endFill=0;entryPerimeter=0;" parent="1" source="o8FTrNFCNX72LYN5SZ1k-2" target="o8FTrNFCNX72LYN5SZ1k-1" edge="1">
          <mxGeometry relative="1" as="geometry">
            <mxPoint x="820" y="1467" as="sourcePoint" />
            <mxPoint x="650" y="1432" as="targetPoint" />
          </mxGeometry>
        </mxCell>
        <mxCell id="o8FTrNFCNX72LYN5SZ1k-44" style="rounded=0;orthogonalLoop=1;jettySize=auto;html=1;exitX=0;exitY=0.5;exitDx=0;exitDy=0;entryX=1;entryY=0.3333333333333333;entryDx=0;entryDy=0;startArrow=none;startFill=0;endArrow=none;endFill=0;entryPerimeter=0;" parent="1" source="o8FTrNFCNX72LYN5SZ1k-6" target="o8FTrNFCNX72LYN5SZ1k-1" edge="1">
          <mxGeometry relative="1" as="geometry">
            <mxPoint x="190" y="1372" as="sourcePoint" />
            <mxPoint x="70" y="1507" as="targetPoint" />
          </mxGeometry>
        </mxCell>
        <mxCell id="o8FTrNFCNX72LYN5SZ1k-45" style="rounded=0;orthogonalLoop=1;jettySize=auto;html=1;exitX=0;exitY=0.5;exitDx=0;exitDy=0;entryX=1;entryY=0.3333333333333333;entryDx=0;entryDy=0;startArrow=none;startFill=0;endArrow=none;endFill=0;entryPerimeter=0;" parent="1" source="o8FTrNFCNX72LYN5SZ1k-7" target="o8FTrNFCNX72LYN5SZ1k-1" edge="1">
          <mxGeometry relative="1" as="geometry">
            <mxPoint x="190" y="1462" as="sourcePoint" />
            <mxPoint x="70" y="1507" as="targetPoint" />
          </mxGeometry>
        </mxCell>
        <mxCell id="o8FTrNFCNX72LYN5SZ1k-46" style="rounded=0;orthogonalLoop=1;jettySize=auto;html=1;exitX=0;exitY=0.5;exitDx=0;exitDy=0;entryX=1;entryY=0.3333333333333333;entryDx=0;entryDy=0;startArrow=none;startFill=0;endArrow=none;endFill=0;entryPerimeter=0;" parent="1" source="o8FTrNFCNX72LYN5SZ1k-8" target="o8FTrNFCNX72LYN5SZ1k-1" edge="1">
          <mxGeometry relative="1" as="geometry">
            <mxPoint x="190" y="1542" as="sourcePoint" />
            <mxPoint x="70" y="1507" as="targetPoint" />
          </mxGeometry>
        </mxCell>
        <mxCell id="o8FTrNFCNX72LYN5SZ1k-47" style="rounded=0;orthogonalLoop=1;jettySize=auto;html=1;exitX=0;exitY=0.5;exitDx=0;exitDy=0;entryX=1;entryY=0.3333333333333333;entryDx=0;entryDy=0;startArrow=none;startFill=0;endArrow=none;endFill=0;entryPerimeter=0;" parent="1" source="o8FTrNFCNX72LYN5SZ1k-9" target="o8FTrNFCNX72LYN5SZ1k-1" edge="1">
          <mxGeometry relative="1" as="geometry">
            <mxPoint x="190" y="1622" as="sourcePoint" />
            <mxPoint x="70" y="1507" as="targetPoint" />
          </mxGeometry>
        </mxCell>
        <mxCell id="o8FTrNFCNX72LYN5SZ1k-48" style="rounded=0;orthogonalLoop=1;jettySize=auto;html=1;exitX=0;exitY=0.5;exitDx=0;exitDy=0;entryX=1;entryY=0.3333333333333333;entryDx=0;entryDy=0;startArrow=none;startFill=0;endArrow=none;endFill=0;entryPerimeter=0;" parent="1" source="o8FTrNFCNX72LYN5SZ1k-13" target="o8FTrNFCNX72LYN5SZ1k-1" edge="1">
          <mxGeometry relative="1" as="geometry">
            <mxPoint x="190" y="1702" as="sourcePoint" />
            <mxPoint x="70" y="1507" as="targetPoint" />
          </mxGeometry>
        </mxCell>
        <mxCell id="o8FTrNFCNX72LYN5SZ1k-49" style="rounded=0;orthogonalLoop=1;jettySize=auto;html=1;exitX=1;exitY=1;exitDx=0;exitDy=0;entryX=0;entryY=0.5;entryDx=0;entryDy=0;dashed=1;" parent="1" source="o8FTrNFCNX72LYN5SZ1k-9" target="o8FTrNFCNX72LYN5SZ1k-11" edge="1">
          <mxGeometry relative="1" as="geometry">
            <mxPoint x="628" y="1567" as="sourcePoint" />
            <mxPoint x="560" y="1667" as="targetPoint" />
          </mxGeometry>
        </mxCell>
        <mxCell id="o8FTrNFCNX72LYN5SZ1k-50" value="&amp;lt;&amp;lt;include&amp;gt;&amp;gt;" style="edgeLabel;html=1;align=center;verticalAlign=middle;resizable=0;points=[];" parent="o8FTrNFCNX72LYN5SZ1k-49" vertex="1" connectable="0">
          <mxGeometry x="-0.1619" y="1" relative="1" as="geometry">
            <mxPoint x="9" y="13" as="offset" />
          </mxGeometry>
        </mxCell>
        <mxCell id="o8FTrNFCNX72LYN5SZ1k-51" style="rounded=0;orthogonalLoop=1;jettySize=auto;html=1;exitX=1;exitY=0;exitDx=0;exitDy=0;entryX=0.5;entryY=1;entryDx=0;entryDy=0;dashed=1;" parent="1" source="o8FTrNFCNX72LYN5SZ1k-9" target="o8FTrNFCNX72LYN5SZ1k-10" edge="1">
          <mxGeometry relative="1" as="geometry">
            <mxPoint x="309" y="1730" as="sourcePoint" />
            <mxPoint x="364" y="1712" as="targetPoint" />
          </mxGeometry>
        </mxCell>
        <mxCell id="o8FTrNFCNX72LYN5SZ1k-52" value="&amp;lt;&amp;lt;include&amp;gt;&amp;gt;" style="edgeLabel;html=1;align=center;verticalAlign=middle;resizable=0;points=[];" parent="o8FTrNFCNX72LYN5SZ1k-51" vertex="1" connectable="0">
          <mxGeometry x="-0.1619" y="1" relative="1" as="geometry">
            <mxPoint x="9" y="13" as="offset" />
          </mxGeometry>
        </mxCell>
        <mxCell id="o8FTrNFCNX72LYN5SZ1k-53" style="rounded=0;orthogonalLoop=1;jettySize=auto;html=1;exitX=0.5;exitY=1;exitDx=0;exitDy=0;entryX=0;entryY=0.3333333333333333;entryDx=0;entryDy=0;startArrow=none;startFill=0;endArrow=none;endFill=0;entryPerimeter=0;" parent="1" source="o8FTrNFCNX72LYN5SZ1k-28" target="o8FTrNFCNX72LYN5SZ1k-26" edge="1">
          <mxGeometry relative="1" as="geometry">
            <mxPoint x="190" y="1802" as="sourcePoint" />
            <mxPoint x="70" y="1507" as="targetPoint" />
          </mxGeometry>
        </mxCell>
        <mxCell id="o8FTrNFCNX72LYN5SZ1k-54" style="rounded=0;orthogonalLoop=1;jettySize=auto;html=1;exitX=0.5;exitY=1;exitDx=0;exitDy=0;entryX=1;entryY=0.3333333333333333;entryDx=0;entryDy=0;startArrow=none;startFill=0;endArrow=none;endFill=0;entryPerimeter=0;" parent="1" source="o8FTrNFCNX72LYN5SZ1k-27" target="o8FTrNFCNX72LYN5SZ1k-26" edge="1">
          <mxGeometry relative="1" as="geometry">
            <mxPoint x="420" y="1846" as="sourcePoint" />
            <mxPoint x="525" y="1937" as="targetPoint" />
          </mxGeometry>
        </mxCell>
        <mxCell id="o8FTrNFCNX72LYN5SZ1k-55" style="rounded=0;orthogonalLoop=1;jettySize=auto;html=1;exitX=0;exitY=1;exitDx=0;exitDy=0;entryX=1;entryY=0.3333333333333333;entryDx=0;entryDy=0;startArrow=none;startFill=0;endArrow=none;endFill=0;entryPerimeter=0;" parent="1" source="o8FTrNFCNX72LYN5SZ1k-29" target="o8FTrNFCNX72LYN5SZ1k-26" edge="1">
          <mxGeometry relative="1" as="geometry">
            <mxPoint x="550" y="1817" as="sourcePoint" />
            <mxPoint x="525" y="1937" as="targetPoint" />
          </mxGeometry>
        </mxCell>
        <mxCell id="o8FTrNFCNX72LYN5SZ1k-56" style="rounded=0;orthogonalLoop=1;jettySize=auto;html=1;exitX=1;exitY=0.5;exitDx=0;exitDy=0;entryX=0;entryY=0.3333333333333333;entryDx=0;entryDy=0;startArrow=none;startFill=0;endArrow=none;endFill=0;entryPerimeter=0;" parent="1" source="o8FTrNFCNX72LYN5SZ1k-31" target="o8FTrNFCNX72LYN5SZ1k-30" edge="1">
          <mxGeometry relative="1" as="geometry">
            <mxPoint x="628" y="1867" as="sourcePoint" />
            <mxPoint x="555" y="1937" as="targetPoint" />
          </mxGeometry>
        </mxCell>
        <mxCell id="o8FTrNFCNX72LYN5SZ1k-57" value="GPTranslate" style="text;html=1;align=center;verticalAlign=middle;whiteSpace=wrap;rounded=0;" parent="1" vertex="1">
          <mxGeometry x="170" y="1290" width="60" height="30" as="geometry" />
        </mxCell>
        <mxCell id="o8FTrNFCNX72LYN5SZ1k-60" style="rounded=0;orthogonalLoop=1;jettySize=auto;html=1;exitX=0;exitY=0.3333333333333333;exitDx=0;exitDy=0;exitPerimeter=0;entryX=1;entryY=0.5;entryDx=0;entryDy=0;startArrow=none;startFill=0;endArrow=none;endFill=0;" parent="1" source="o8FTrNFCNX72LYN5SZ1k-22" target="o8FTrNFCNX72LYN5SZ1k-23" edge="1">
          <mxGeometry relative="1" as="geometry">
            <mxPoint x="820" y="1467" as="sourcePoint" />
            <mxPoint x="650" y="1432" as="targetPoint" />
          </mxGeometry>
        </mxCell>
        <mxCell id="o8FTrNFCNX72LYN5SZ1k-61" style="rounded=0;orthogonalLoop=1;jettySize=auto;html=1;exitX=0;exitY=0.3333333333333333;exitDx=0;exitDy=0;exitPerimeter=0;entryX=1;entryY=0;entryDx=0;entryDy=0;startArrow=none;startFill=0;endArrow=none;endFill=0;" parent="1" source="o8FTrNFCNX72LYN5SZ1k-14" target="o8FTrNFCNX72LYN5SZ1k-17" edge="1">
          <mxGeometry relative="1" as="geometry">
            <mxPoint x="820" y="1467" as="sourcePoint" />
            <mxPoint x="483" y="1537" as="targetPoint" />
          </mxGeometry>
        </mxCell>
        <mxCell id="PDvEsl6iaTgeDGCLrAiC-1" value="Аутентифици-&lt;div&gt;роваться&lt;/div&gt;" style="ellipse;whiteSpace=wrap;html=1;" parent="1" vertex="1">
          <mxGeometry x="600" y="1800" width="120" height="70" as="geometry" />
        </mxCell>
        <mxCell id="PDvEsl6iaTgeDGCLrAiC-2" style="rounded=0;orthogonalLoop=1;jettySize=auto;html=1;exitX=1;exitY=0.5;exitDx=0;exitDy=0;entryX=0;entryY=0.3333333333333333;entryDx=0;entryDy=0;startArrow=none;startFill=0;endArrow=none;endFill=0;entryPerimeter=0;" parent="1" source="PDvEsl6iaTgeDGCLrAiC-1" target="o8FTrNFCNX72LYN5SZ1k-30" edge="1">
          <mxGeometry relative="1" as="geometry">
            <mxPoint x="730" y="1757" as="sourcePoint" />
            <mxPoint x="820" y="1742" as="targetPoint" />
          </mxGeometry>
        </mxCell>
        <mxCell id="-qlgGPVGAxt029IMYuaA-1" style="edgeStyle=orthogonalEdgeStyle;rounded=0;orthogonalLoop=1;jettySize=auto;html=1;endArrow=block;endFill=0;" edge="1" parent="1">
          <mxGeometry relative="1" as="geometry">
            <mxPoint x="850" y="1457" as="sourcePoint" />
            <mxPoint x="450" y="1940" as="targetPoint" />
            <Array as="points">
              <mxPoint x="880" y="1457" />
              <mxPoint x="880" y="1940" />
            </Array>
          </mxGeometry>
        </mxCell>
        <mxCell id="-qlgGPVGAxt029IMYuaA-2" style="edgeStyle=orthogonalEdgeStyle;rounded=0;orthogonalLoop=1;jettySize=auto;html=1;endArrow=block;endFill=0;" edge="1" parent="1">
          <mxGeometry relative="1" as="geometry">
            <mxPoint x="820" y="1350" as="sourcePoint" />
            <mxPoint x="450" y="1950" as="targetPoint" />
            <Array as="points">
              <mxPoint x="890" y="1350" />
              <mxPoint x="890" y="1950" />
            </Array>
          </mxGeometry>
        </mxCell>
        <mxCell id="-qlgGPVGAxt029IMYuaA-3" style="edgeStyle=orthogonalEdgeStyle;rounded=0;orthogonalLoop=1;jettySize=auto;html=1;endArrow=block;endFill=0;" edge="1" parent="1">
          <mxGeometry relative="1" as="geometry">
            <mxPoint x="20" y="1500" as="sourcePoint" />
            <mxPoint x="390" y="1940" as="targetPoint" />
            <Array as="points">
              <mxPoint x="-10" y="1500" />
              <mxPoint x="-10" y="1940" />
            </Array>
          </mxGeometry>
        </mxCell>
      </root>
    </mxGraphModel>
  </diagram>
</mxfile>
